<svg xmlns="http://www.w3.org/2000/svg" viewBox="0 0 64 64">
  <defs>
    <linearGradient id="bg" x1="0" y1="0" x2="1" y2="1">
      <stop offset="0" stop-color="#101a52"/>
      <stop offset=".55" stop-color="#0a0f2e"/>
      <stop offset="1" stop-color="#04061a"/>
    </linearGradient>
    <linearGradient id="hull" x1="0" y1="0" x2="0" y2="1">
      <stop offset="0" stop-color="#8df2ff"/>
      <stop offset="1" stop-color="#35cbe8"/>
    </linearGradient>
    <radialGradient id="glow" cx=".5" cy=".45" r=".55">
      <stop offset="0" stop-color="#5eeaff" stop-opacity=".5"/>
      <stop offset="1" stop-color="#5eeaff" stop-opacity="0"/>
    </radialGradient>
    <radialGradient id="neb" cx=".5" cy=".5" r=".5">
      <stop offset="0" stop-color="#7c5cff" stop-opacity=".45"/>
      <stop offset="1" stop-color="#7c5cff" stop-opacity="0"/>
    </radialGradient>
    <linearGradient id="flame" x1="0" y1="0" x2="0" y2="1">
      <stop offset="0" stop-color="#ffd75e"/>
      <stop offset="1" stop-color="#ff8c42"/>
    </linearGradient>
  </defs>
  <rect x="2" y="2" width="60" height="60" rx="15" fill="url(#bg)"/>
  <circle cx="20" cy="46" r="16" fill="url(#neb)"/>
  <circle cx="32" cy="29" r="21" fill="url(#glow)"/>
  <circle cx="15" cy="19" r="1.4" fill="#bcd0ff" opacity=".9"/>
  <circle cx="50" cy="14" r="1.1" fill="#bcd0ff" opacity=".7"/>
  <circle cx="53" cy="42" r="1.3" fill="#bcd0ff" opacity=".55"/>
  <circle cx="11" cy="36" r=".9" fill="#bcd0ff" opacity=".5"/>
  <g transform="translate(6.8 6.8) scale(2.1)">
    <path d="M12 2c3.2 2.8 4.4 6.6 4.4 10.6L19 17l-3.4-.6L12 21l-3.6-4.6L5 17l2.6-4.4C7.6 8.6 8.8 4.8 12 2z" fill="url(#hull)"/>
    <circle cx="12" cy="11" r="2.6" fill="#0a0f2e"/>
    <circle cx="12" cy="11" r="2.6" fill="none" stroke="#a5f3ff" stroke-width=".8"/>
  </g>
  <path d="M28.6 50.6C28.6 55 32 59.6 32 59.6C32 59.6 35.4 55 35.4 50.6Z" fill="url(#flame)"/>
  <path d="M16 10.5L17.7 14.3L21.5 16L17.7 17.7L16 21.5L14.3 17.7L10.5 16L14.3 14.3Z" fill="#ffd75e"/>
  <rect x="2.75" y="2.75" width="58.5" height="58.5" rx="14.25" fill="none" stroke="#5eeaff" stroke-opacity=".35" stroke-width="1.5"/>
</svg>
